<mxfile host="app.diagrams.net" modified="2021-10-09T11:46:19.782Z" agent="5.0 (Macintosh; Intel Mac OS X 10_13_6) AppleWebKit/537.36 (KHTML, like Gecko) Chrome/94.0.4606.71 Safari/537.36" etag="Sxx7hoUEZgAR1k-q9Wi7" version="15.5.0" type="github">
  <diagram id="XjsjyiZ6YCduKxbceBSg" name="Page-1">
    <mxGraphModel dx="704" dy="794" grid="1" gridSize="10" guides="1" tooltips="1" connect="1" arrows="1" fold="1" page="1" pageScale="1" pageWidth="827" pageHeight="1169" math="0" shadow="0">
      <root>
        <mxCell id="0" />
        <mxCell id="1" parent="0" />
        <mxCell id="IbC0pFxfC2GWKEPFQdxM-1" value="University" style="swimlane;childLayout=stackLayout;horizontal=1;startSize=30;horizontalStack=0;rounded=1;fontSize=14;fontStyle=0;strokeWidth=2;resizeParent=0;resizeLast=1;shadow=0;dashed=0;align=center;" vertex="1" parent="1">
          <mxGeometry x="260" y="510" width="160" height="120" as="geometry" />
        </mxCell>
        <mxCell id="IbC0pFxfC2GWKEPFQdxM-2" value="budget&#xa;number_of_grants&#xa;number_of_student" style="align=left;strokeColor=none;fillColor=none;spacingLeft=4;fontSize=12;verticalAlign=top;resizable=0;rotatable=0;part=1;" vertex="1" parent="IbC0pFxfC2GWKEPFQdxM-1">
          <mxGeometry y="30" width="160" height="90" as="geometry" />
        </mxCell>
        <mxCell id="IbC0pFxfC2GWKEPFQdxM-3" value="Dormitory" style="swimlane;childLayout=stackLayout;horizontal=1;startSize=30;horizontalStack=0;rounded=1;fontSize=14;fontStyle=0;strokeWidth=2;resizeParent=0;resizeLast=1;shadow=0;dashed=0;align=center;" vertex="1" parent="1">
          <mxGeometry x="470" y="312" width="160" height="120" as="geometry">
            <mxRectangle x="470" y="270" width="90" height="30" as="alternateBounds" />
          </mxGeometry>
        </mxCell>
        <mxCell id="IbC0pFxfC2GWKEPFQdxM-4" value="room_number &#xa;student_name &#xa;blocks" style="align=left;strokeColor=none;fillColor=none;spacingLeft=4;fontSize=12;verticalAlign=top;resizable=0;rotatable=0;part=1;" vertex="1" parent="IbC0pFxfC2GWKEPFQdxM-3">
          <mxGeometry y="30" width="160" height="90" as="geometry" />
        </mxCell>
        <mxCell id="IbC0pFxfC2GWKEPFQdxM-5" value="Office of the registrar" style="swimlane;childLayout=stackLayout;horizontal=1;startSize=30;horizontalStack=0;rounded=1;fontSize=14;fontStyle=0;strokeWidth=2;resizeParent=0;resizeLast=1;shadow=0;dashed=0;align=center;" vertex="1" parent="1">
          <mxGeometry x="70" y="312" width="160" height="138" as="geometry" />
        </mxCell>
        <mxCell id="IbC0pFxfC2GWKEPFQdxM-6" value="main_manager&#xa;employee&#xa;employee_id&#xa;student_id(underlined)&#xa;student_course(underlined)&#xa;&#xa;" style="align=left;strokeColor=none;fillColor=none;spacingLeft=4;fontSize=12;verticalAlign=top;resizable=0;rotatable=0;part=1;" vertex="1" parent="IbC0pFxfC2GWKEPFQdxM-5">
          <mxGeometry y="30" width="160" height="108" as="geometry" />
        </mxCell>
        <mxCell id="IbC0pFxfC2GWKEPFQdxM-7" value="Teacher" style="swimlane;childLayout=stackLayout;horizontal=1;startSize=30;horizontalStack=0;rounded=1;fontSize=14;fontStyle=0;strokeWidth=2;resizeParent=0;resizeLast=1;shadow=0;dashed=0;align=center;" vertex="1" parent="1">
          <mxGeometry x="470" y="80" width="160" height="120" as="geometry" />
        </mxCell>
        <mxCell id="IbC0pFxfC2GWKEPFQdxM-8" value="ID&#xa;name &#xa;Salary " style="align=left;strokeColor=none;fillColor=none;spacingLeft=4;fontSize=12;verticalAlign=top;resizable=0;rotatable=0;part=1;" vertex="1" parent="IbC0pFxfC2GWKEPFQdxM-7">
          <mxGeometry y="30" width="160" height="90" as="geometry" />
        </mxCell>
        <mxCell id="IbC0pFxfC2GWKEPFQdxM-9" value=" Course" style="swimlane;childLayout=stackLayout;horizontal=1;startSize=30;horizontalStack=0;rounded=1;fontSize=14;fontStyle=0;strokeWidth=2;resizeParent=0;resizeLast=1;shadow=0;dashed=0;align=center;" vertex="1" parent="1">
          <mxGeometry x="70" y="80" width="160" height="120" as="geometry" />
        </mxCell>
        <mxCell id="IbC0pFxfC2GWKEPFQdxM-10" value="course_id&#xa;title&#xa;credits " style="align=left;strokeColor=none;fillColor=none;spacingLeft=4;fontSize=12;verticalAlign=top;resizable=0;rotatable=0;part=1;" vertex="1" parent="IbC0pFxfC2GWKEPFQdxM-9">
          <mxGeometry y="30" width="160" height="90" as="geometry" />
        </mxCell>
        <mxCell id="IbC0pFxfC2GWKEPFQdxM-32" style="edgeStyle=orthogonalEdgeStyle;rounded=0;orthogonalLoop=1;jettySize=auto;html=1;entryX=1;entryY=0.5;entryDx=0;entryDy=0;" edge="1" parent="1" source="IbC0pFxfC2GWKEPFQdxM-12" target="IbC0pFxfC2GWKEPFQdxM-10">
          <mxGeometry relative="1" as="geometry" />
        </mxCell>
        <mxCell id="IbC0pFxfC2GWKEPFQdxM-12" value="give" style="shape=rhombus;perimeter=rhombusPerimeter;whiteSpace=wrap;html=1;align=center;" vertex="1" parent="1">
          <mxGeometry x="290" y="120" width="120" height="60" as="geometry" />
        </mxCell>
        <mxCell id="IbC0pFxfC2GWKEPFQdxM-14" value="" style="endArrow=none;html=1;rounded=0;edgeStyle=orthogonalEdgeStyle;entryX=-0.006;entryY=0.4;entryDx=0;entryDy=0;entryPerimeter=0;" edge="1" parent="1" target="IbC0pFxfC2GWKEPFQdxM-8">
          <mxGeometry relative="1" as="geometry">
            <mxPoint x="410" y="150" as="sourcePoint" />
            <mxPoint x="494" y="149.5" as="targetPoint" />
            <Array as="points">
              <mxPoint x="410" y="146" />
            </Array>
          </mxGeometry>
        </mxCell>
        <mxCell id="IbC0pFxfC2GWKEPFQdxM-33" style="edgeStyle=orthogonalEdgeStyle;rounded=0;orthogonalLoop=1;jettySize=auto;html=1;entryX=1.013;entryY=0.344;entryDx=0;entryDy=0;entryPerimeter=0;" edge="1" parent="1" source="IbC0pFxfC2GWKEPFQdxM-17" target="IbC0pFxfC2GWKEPFQdxM-6">
          <mxGeometry relative="1" as="geometry" />
        </mxCell>
        <mxCell id="IbC0pFxfC2GWKEPFQdxM-17" value="student_info" style="shape=rhombus;perimeter=rhombusPerimeter;whiteSpace=wrap;html=1;align=center;" vertex="1" parent="1">
          <mxGeometry x="290" y="342" width="120" height="60" as="geometry" />
        </mxCell>
        <mxCell id="IbC0pFxfC2GWKEPFQdxM-20" value="" style="endArrow=none;html=1;rounded=0;edgeStyle=orthogonalEdgeStyle;" edge="1" parent="1">
          <mxGeometry relative="1" as="geometry">
            <mxPoint x="410" y="372" as="sourcePoint" />
            <mxPoint x="470" y="372" as="targetPoint" />
            <Array as="points">
              <mxPoint x="410" y="371.5" />
              <mxPoint x="410" y="371.5" />
            </Array>
          </mxGeometry>
        </mxCell>
        <mxCell id="IbC0pFxfC2GWKEPFQdxM-22" value="" style="line;strokeWidth=1;rotatable=0;dashed=0;labelPosition=right;align=left;verticalAlign=middle;spacingTop=0;spacingLeft=6;points=[];portConstraint=eastwest;" vertex="1" parent="1">
          <mxGeometry x="40" y="30" width="640" height="10" as="geometry" />
        </mxCell>
        <mxCell id="IbC0pFxfC2GWKEPFQdxM-27" value="" style="line;strokeWidth=1;rotatable=0;dashed=0;labelPosition=right;align=left;verticalAlign=middle;spacingTop=0;spacingLeft=6;points=[];portConstraint=eastwest;direction=south;" vertex="1" parent="1">
          <mxGeometry x="670" y="30" width="10" height="450" as="geometry" />
        </mxCell>
        <mxCell id="IbC0pFxfC2GWKEPFQdxM-28" value="" style="line;strokeWidth=1;rotatable=0;dashed=0;labelPosition=right;align=left;verticalAlign=middle;spacingTop=0;spacingLeft=6;points=[];portConstraint=eastwest;direction=west;" vertex="1" parent="1">
          <mxGeometry x="40" y="470" width="640" height="10" as="geometry" />
        </mxCell>
        <mxCell id="IbC0pFxfC2GWKEPFQdxM-29" value="" style="line;strokeWidth=1;rotatable=0;dashed=0;labelPosition=right;align=left;verticalAlign=middle;spacingTop=0;spacingLeft=6;points=[];portConstraint=eastwest;direction=south;" vertex="1" parent="1">
          <mxGeometry x="40" y="30" width="10" height="450" as="geometry" />
        </mxCell>
        <mxCell id="IbC0pFxfC2GWKEPFQdxM-30" value="" style="line;strokeWidth=1;rotatable=0;dashed=0;labelPosition=right;align=left;verticalAlign=middle;spacingTop=0;spacingLeft=6;points=[];portConstraint=eastwest;direction=south;" vertex="1" parent="1">
          <mxGeometry x="335" y="470" width="10" height="40" as="geometry" />
        </mxCell>
        <mxCell id="IbC0pFxfC2GWKEPFQdxM-36" style="edgeStyle=orthogonalEdgeStyle;rounded=0;orthogonalLoop=1;jettySize=auto;html=1;entryX=0.5;entryY=0;entryDx=0;entryDy=0;" edge="1" parent="1" source="IbC0pFxfC2GWKEPFQdxM-35" target="IbC0pFxfC2GWKEPFQdxM-5">
          <mxGeometry relative="1" as="geometry" />
        </mxCell>
        <mxCell id="IbC0pFxfC2GWKEPFQdxM-35" value="student_course" style="shape=rhombus;perimeter=rhombusPerimeter;whiteSpace=wrap;html=1;align=center;" vertex="1" parent="1">
          <mxGeometry x="90" y="225" width="120" height="60" as="geometry" />
        </mxCell>
        <mxCell id="IbC0pFxfC2GWKEPFQdxM-38" value="" style="line;strokeWidth=1;rotatable=0;dashed=0;labelPosition=right;align=left;verticalAlign=middle;spacingTop=0;spacingLeft=6;points=[];portConstraint=eastwest;direction=south;" vertex="1" parent="1">
          <mxGeometry x="145" y="200" width="10" height="30" as="geometry" />
        </mxCell>
      </root>
    </mxGraphModel>
  </diagram>
</mxfile>
